# xmcd CD database file
# Copyright (C) 1993-1998 Ti Kan
#
# Track frame offsets:
#  150
#  16562
#  29206
#  47811
#  64093
#  84416
#  100072
#  109547
#  135887
#
# Disc length: 2216 seconds
#
# Revision: 1
# Processed by: cddbd v1.4b41PL1 Copyright (c) Steve Scherf et al.
# Submitted via: CDWizzard Release:4.24
#
DISCID=6508a609
DTITLE=Meridith Louise Miller - ifihadahifi
DYEAR=1900
DGENRE=
TTITLE0=Dreams Of You And Elvis
TTITLE1=Wishing
TTITLE2=Chapel
TTITLE3=His Heart
TTITLE4=Whole
TTITLE5=Own Hand
TTITLE6=Walking
TTITLE7=The Prince Song
TTITLE8=Afraid You'll Stay
EXTD=
EXTT0=
EXTT1=
EXTT2=
EXTT3=
EXTT4=
EXTT5=
EXTT6=
EXTT7=
EXTT8=
PLAYORDER=
